<svg xmlns="http://www.w3.org/2000/svg" xmlns:xlink="http://www.w3.org/1999/xlink" width="201.02" height="173.392" viewBox="0 0 201.02 173.392"><defs><style>.a{fill:url(#a);}</style><linearGradient id="a" x1="0.81" x2="0.114" y2="0.884" gradientUnits="objectBoundingBox"><stop offset="0" stop-color="#fa6c38"/><stop offset="1" stop-color="#df0d00"/></linearGradient></defs><path class="a" d="M55.5,19.665h.437c.437-4.37,5.244-4.807,6.555-9.177.874,0,.437,1.311,1.748.874a2.059,2.059,0,0,1,.437-2.622c.874,0,.437,1.311,1.748.874,1.748-3.5.874-8.74,4.37-9.177-1.311-1.748-.437-4.37,1.748-5.681C72.105-3.5,70.357-1.311,72.105,0c.437-1.311.874-2.185.437-3.5.874,0,.874.437,1.311.437.437-1.311-1.311-.874-.874-2.185,3.5-6.118,3.5-17.043,6.118-23.6,0-6.555,3.5-17.043,3.933-24.035h1.311c.874-1.748-1.311-.437-1.311-1.311,0-1.311,1.748-1.311,2.185-2.185-.437-.437-1.311-.437-1.311-.874,1.311-1.311,1.311-1.311.437-3.059,2.185.437,2.185-1.748,3.059-2.622-1.748-.437-1.311,0-2.622.437.437-2.622,1.748-6.118.437-7.866,3.5-2.185,3.933-10.051,3.933-12.236C89.585-83.9,90.9-83.9,91.77-84.778c.437-1.311-1.311-.437-.874-1.748,2.185-.437,1.311-4.37,2.185-6.118-2.622-1.311-.874-3.933-2.185-6.118.437,0,.874-.437,1.748-.874a5.255,5.255,0,0,1-.874-3.5,1.985,1.985,0,0,1,2.185,0c-1.311-2.185.437-4.37-1.748-4.37.874-.437-.437-1.748.437-1.748.874.437,2.185-.874.874-.874,0,.437-.437.437-.437,0,2.185-3.059,1.748-5.681,2.622-9.614.874-11.362-3.933-21.413-14.421-23.6-2.185.874-4.37-.874-7.429,0-.874.874-1.311,2.185-2.185,3.059,1.311,16.169,1.311,37.145-3.059,52.877-8.3,0-15.732,3.059-22.724,1.748.874-2.185.874-5.681.437-9.177,3.933-7.866,2.185-15.3,4.807-23.161-5.244-4.37-12.236-3.933-17.48-5.681a11.611,11.611,0,0,1-6.555.437c-9.177,9.177-7.429,28.405-11.8,42.389C8.74-79.534-3.933-82.156-4.37-75.6H-6.118c1.311,6.555,7.866,9.614,10.488,14.858,1.748,1.311,4.807,1.311,6.118,3.059C8.3-42.389,2.622-26.657.437-8.74c1.311.437.437-1.311,1.748-.874C0-6.118,3.5-3.5,1.748-2.185c-.437,1.311,1.311.874.874,2.622C3.5.437,3.5-.437,4.807,0c0,.874.874,1.311.437,2.622C6.992,2.185,7.866.874,9.614,0c0,.874,1.311.437.874,1.748C11.362.874,13.11-.437,14.858.437c-.437-1.311.437-1.748,1.311-2.185,1.311.437,2.185,3.059,3.5,2.185A1.738,1.738,0,0,0,17.48-1.748c-.437-2.622,2.185,0,2.622-1.311,1.748-2.185.874-10.488,3.5-13.11.437,0,.437,1.311.437,1.748.874-.437.874-.437.874.874a.94.94,0,0,1-.874-.874c-.437,0-.437.437-.874.437,1.748,3.059-.874,4.807,0,6.555,3.5-2.622,1.748-9.177,5.244-12.673-.874-.437-1.311-1.311-1.311-3.059.874,0,.874.437,1.748.437.437-1.748-.874-1.748-.437-3.5h1.311c.437-4.807,3.933-9.177,1.748-13.547,1.311-1.311,1.311-3.933,3.5-4.37-.437-.437-1.311-.437-1.311-.874,2.185-3.933.874-8.74,3.5-12.236-.437-2.185,3.933-1.311,6.118-2.185,2.622-.874,5.244-3.059,7.866-3.5,4.807-1.311,10.051-1.311,14.421-3.059-5.681,28.4-12.236,55.936-17.917,82.156.874,0,.874,1.311.874,2.185q1.967-.656,1.311,1.311c2.622-.437,3.059-2.185,5.244-2.185C54.625,18.791,54.625,18.791,55.5,19.665ZM86.963-75.164C87.4-76.912,87.4-73.416,86.963-75.164ZM79.1-37.582Zm-2.185,4.37Zm0,3.5C78.223-27.531,74.727-27.968,76.912-29.716Zm-.874,2.622C77.786-25.783,74.727-25.783,76.038-27.094Zm-51.566,4.37c0,.437-.437.437-.874.437C23.6-22.724,24.035-22.724,24.472-22.724Zm-.437,1.748ZM3.059-15.3C3.5-17.043,3.5-13.547,3.059-15.3Zm70.357.874ZM2.622-11.8C1.311-13.11,3.5-14.421,2.622-11.8Zm70.357,1.748c-.874-.437,0-.874,0-1.311C73.853-10.925,72.979-10.488,72.979-10.051ZM4.37-1.748ZM93.081-98.325ZM37.145-57.247C37.582-56.373,37.582-57.247,37.145-57.247Zm-1.311,9.614C37.145-48.507,34.96-46.322,35.834-47.633Zm46.759,1.748C83.9-46.759,81.719-44.574,82.593-45.885Zm-48.944,8.3h.437c0-.874,0-1.748-.874-1.748C33.212-38.456,33.649-38.019,33.649-37.582Zm0,0C34.086-35.834,32.338-37.582,33.649-37.582ZM16.169-.437V.437h.874V-.437ZM69.92,1.311Zm-59.432.437C11.8,3.059,8.74,2.622,10.488,1.748ZM55.5,19.665C55.5,21.413,53.751,19.665,55.5,19.665Zm70.794-89.148c-.437-2.622,2.622-6.992,1.748-10.925,4.807-2.622-1.748-8.3,3.933-9.177,0-1.748-1.311-2.185-1.311-4.37,2.622-1.748,0-4.37,1.748-5.244-2.185,0-.437-1.311-.874-3.059.874-.437,1.748,0,1.748-1.311,0-.874-1.311,1.311-.874-.437,1.748-.437,1.311-3.5,2.622-4.807a1.546,1.546,0,0,1,.437-3.059c.437,1.311-1.748,2.185-.437,2.622,2.622-4.807,5.244-12.673,3.5-17.043,1.748,0,.874-3.059,1.748-3.933-8.3-4.37-17.043-5.244-28.4-6.555-.874,1.748-1.311,3.5-2.185,5.244,1.311,12.673-3.5,25.783-3.933,40.2-.437,13.984-2.185,27.968-3.933,41.952C97.451-34.086,97.888-16.606,96.577.874c2.622.874,3.933.437,5.681,1.748,1.311.437.437-1.311,1.748-1.311a1.526,1.526,0,0,1,.437.874c1.311.437,1.311-.437,2.185-.437,0-.437.437-.437,0,0,0,.437,0,.874.437.874.874-3.059,3.059-2.622,5.681-4.807,0,.874-.437,2.185.874,1.748.874-3.933,2.622-11.362,2.622-14.858,2.185,0-.437,3.5.874,3.5,0-.437.874-.437,1.311-.437.437-2.622-.437-4.807,0-6.555-1.311-.874,0,1.748-.874,1.748h-.437c0-2.622-1.311-3.933.437-6.555,0,.437,0,.874.437.874,0-.437.437,0,.437,0,0-1.748.874,0,.874-1.311,0-.437,0-.874-.437-.874,0,.437-.437.437,0,0,.437-1.311-.874-1.748.437-1.748,0-3.933,2.622-10.051,1.311-14.858,0,.437-.437.437-.874.437,2.185-1.748,3.059-6.555,1.748-8.3,0,.437,0,.874-.437.874,0,.437,0,.437-.437.437a.428.428,0,0,1,.437-.437c-1.311-1.311.874-1.748,1.748-.874a35.341,35.341,0,0,1,3.933-16.606C124.982-66.424,125.419-68.172,126.293-69.483Zm2.185-11.362Zm-1.748,3.5C127.167-78.66,127.6-75.6,126.73-77.349Zm-2.185,4.807Zm0,.437ZM123.234-67.3C124.108-69.046,123.671-66.424,123.234-67.3ZM122.36-59c-.437,0-.437-.874-.437-1.311C123.234-60.306,122.36-59.869,122.36-59Zm-1.748.874Zm1.748-.437c0,.437-.437.437-.874.437C121.486-58.558,121.923-58.558,122.36-58.558Zm-.874,3.059c0-.874,0-1.748,1.311-1.748,0,.874-.874,1.311-.437,2.622-.437,0-.437-.874-.874-.874-.437.437,0,1.311-1.311,1.311a1.605,1.605,0,0,1,.437-1.311c-1.311-.437.437-2.185,0,0Zm1.311,0Zm-3.933.874Zm2.622.437Zm-.437,1.748c-.437,0-.437.437-1.311.437-.437-1.311.874-.874.874-1.748.437,0,.437.874.437,1.311a1.081,1.081,0,0,1,.437,1.748C120.612-50.692,121.049-51.566,121.049-52.44Zm.874,2.185ZM119.3-48.07v-1.311h.874v1.311Zm1.311.874Zm-1.311.437C119.738-48.07,119.738-45.011,119.3-46.759Zm0,1.748Zm-.437,9.614c-.437,1.748-.437-.437-1.311-.437,0-.437.874-.437.874-.437,0-.437-.437-.437-.874-.437,1.748-2.185-.437-5.244,1.748-6.118.437,1.311-.874,3.059,0,3.5,0-.437.437-.437,0,0-.437,1.311-.874,1.748,0,3.059,0,.437-1.311.437-.437.874C118.864-35.834,119.3-35.834,118.864-35.4Zm-1.311,2.622C117.99-34.523,117.99-31.027,117.553-32.775Zm-.437,1.311Zm.437,2.185C117.99-31.027,117.99-27.968,117.553-29.279Zm0,1.311c0-.437.437-.437,0,0C117.99-25.783,116.242-27.531,117.553-27.968Zm.874,2.185c0,.437,0,.437-.437.437A.428.428,0,0,1,118.427-25.783ZM117.99-23.6C118.427-25.346,118.427-22.287,117.99-23.6Zm-.437,9.177Zm0,1.311Zm-5.681,6.118C113.183-7.866,111.435-3.5,111.872-6.992Zm1.748,1.748c0,.437-.437.437-.874.437C112.746-5.244,113.183-5.244,113.62-5.244Zm-1.748,2.185ZM99.636.874ZM131.974-91.77Zm.437,3.059Zm-4.37,15.295Zm-1.748,3.933C126.73-69.92,126.293-69.92,126.293-69.483ZM119.3-26.657C120.612-26.657,118.864-24.909,119.3-26.657Zm-.874,4.807c-.437.874,0,.874-.437,2.622C118.864-18.791,118.427-21.85,118.427-21.85Zm-1.311,4.807h.437C117.553-17.48,117.116-17.48,117.116-17.043ZM109.25,1.311ZM98.762,2.622C99.2,1.311,99.2,4.37,98.762,2.622Zm5.681-.437h-.437v.874C104.443,3.059,104.443,2.622,104.443,2.185ZM102.258,3.5Zm92.207-139.84c.437-1.748,0-2.185.437-4.37-3.933-3.5-6.555-6.555-10.051-9.614-1.311-.437-.437,1.311-1.748.874-.874-.874-2.185-1.748-3.059-2.622.437,1.311-1.311.437-1.748,1.311-.437-.437,0-.874,0-1.311-1.748,1.311-3.059,0-4.37-.874-3.059,1.748-3.059,3.5-6.555,3.5-3.059,10.925-4.37,24.472-6.992,36.708C159.942-93.518,155.572-67.3,164.312-52c.437-1.311-.437-1.311-.437-2.185-.437,0-.437-.437,0-.437v.437c1.748,0,.874,2.622,2.622,2.622v-1.311c-.437,0-.437-.437,0,0,.437.874,1.311.874,2.185,1.311.437-.437,0-1.748.874-1.748.874.437,1.748,1.311,2.622,1.748-.874-1.311,0-1.748,1.311-2.185,1.748,1.311,3.933-.437,5.681-.874.437-.874-1.311-1.311,0-1.748.437.437.437,1.311.874,1.311.437-2.622,0-3.059-.437-5.681,1.311-.437.874.874,1.748.874.437-4.37,2.622-13.547,0-18.354.874,0,1.311-.437,1.748-.437-.437-1.748-.874-2.185.437-3.5,1.311,0,.874,1.311,1.748,1.748,1.311-8.74.874-17.917,3.059-27.531,1.311-11.8.437-20.976,6.118-27.968C194.028-135.907,194.028-136.344,194.465-136.344Zm-9.177,48.507ZM183.1-83.03ZM179.17-68.172Zm.437,6.992ZM178.3-56.81ZM166.06-53.751Zm28.4-82.156c.437,0,.437-.437,0-.437Zm-9.177,55.5C184.414-79.971,185.288-79.971,185.288-80.408Zm-5.681,48.944c-6.118-3.5-12.673-6.555-21.85-4.37-4.807,6.118-4.807,10.925-4.37,20.976-2.185,3.059-1.311,10.051.874,13.547,3.933,2.185,7.866,1.311,11.362,3.5.874-1.748,2.185.437,3.059.874,4.807-.874,10.051-1.748,13.547-3.933,1.311-3.933,1.311-8.74-.874-11.8.874-3.933.874-11.8,1.311-15.732-1.311,0-1.748.874-3.059.874C180.481-28.4,179.17-29.716,179.607-31.464Z" transform="translate(6.118 152.95)"/></svg>